<svg xmlns="http://www.w3.org/2000/svg" viewBox="0 0 189.27 160.03"><g id="Layer_2" data-name="Layer 2"><g id="Layer_1-2" data-name="Layer 1"><path d="M128,143.23h-1.88q-22,0-44,0c-1.33,0-1.95.24-2.31,1.76a19.65,19.65,0,0,1-38.16.24l-.52-2H39c-7.27,0-14.55,0-21.82,0-5.53,0-8.91-3.36-8.93-8.91,0-8.88,0-17.76,0-26.65,0-2.93.89-3.81,3.8-3.82,6,0,12.1,0,18.15,0H32.4c.06-.73.14-1.29.14-1.84,0-4.83,0-9.66.05-14.49,0-1.43-.49-1.93-1.8-2.09s-2.77-.61-4.17-.73c-2.2-.18-3.23-1.39-3.85-3.41-4.46-14.49-9-28.95-13.47-43.45-.43-1.38-.93-2.09-2.47-1.88a22.74,22.74,0,0,1-3.09,0C1.34,35.94,0,34.86,0,33s1.41-2.84,3.84-2.85h9.38c2.92-7.69,8.48-11.67,16.86-11.69A22.31,22.31,0,0,1,35.16,7.42,21.34,21.34,0,0,1,69,9.35a2.87,2.87,0,0,0,3.09,1.48C78.3,10.3,83.22,12.71,87,17.68a4,4,0,0,0,1.9,1.38A16.22,16.22,0,0,1,99.7,29a1.79,1.79,0,0,0,1.79,1.28A6.57,6.57,0,0,0,108,27.41c3.54-4.58,7.48-8.84,11.22-13.27a4.42,4.42,0,0,1,3.65-1.74c8.24,0,16.48,0,24.72,0a7.65,7.65,0,0,1,1,0,2.94,2.94,0,0,1,2.75,3,2.83,2.83,0,0,1-2.89,2.77c-3.61.07-7.21,0-10.82,0-2.12,0-4.25,0-6.37,0-2.63,0-5.62-.69-7.8.32s-3.56,3.77-5.28,5.77c-2.06,2.39-4,4.85-6.18,7.16a6.92,6.92,0,0,0-1.86,4.28q-2.34,23.82-4.76,47.63c-.41,4-.78,8.06-1.23,12.09-.29,2.62-1.44,3.49-4.06,3.07-2.46-.39-4.9-.89-7.53-1.37v6.59h23.28V37.41c0-3.65.73-4.38,4.42-4.38,11.78,0,23.56,0,35.33,0a5,5,0,0,1,4.63,2.45c9.18,13.44,18.46,26.81,27.61,40.27a8.4,8.4,0,0,1,1.37,4.43c.09,17.9.06,35.79.06,53.68,0,6.2-3.2,9.4-9.37,9.41-3.8,0-7.6,0-11.4,0-1,0-1.44.21-1.7,1.29-2.36,9.54-10.09,15.65-19.49,15.52s-16.84-6.37-19.06-15.85C128.18,143.94,128.12,143.7,128,143.23Zm-87.27-5.79c.19-.68.35-1.23.49-1.78a19.81,19.81,0,0,1,19.28-15.37,19.37,19.37,0,0,1,19.27,15.28c.36,1.55.93,1.9,2.4,1.9,14.55-.05,29.09,0,43.64,0h1.87c.18-.63.32-1.05.42-1.49,2.28-9.57,9.81-15.67,19.37-15.67,9.36,0,17.13,6.28,19.38,15.72.25,1,.63,1.49,1.78,1.46,3.79-.07,7.59,0,11.39,0,2.67,0,3.42-.79,3.42-3.47q0-11.3,0-22.59c0-.57-.06-1.13-.09-1.72H14.09v5.86c2.82,0,5.51,0,8.2,0a8.36,8.36,0,0,1,7.79,5.61,8.5,8.5,0,0,1-7.75,11.36c-2.74.09-5.49,0-8.19,0-.48,4.11.24,4.93,4,4.94h22.6ZM14.77,36c.21.73.37,1.34.56,1.94,4,13,8.1,26,12,39a3.28,3.28,0,0,0,3,2.61Q56.7,84.45,83,89.43l15.63,2.93c1.92-18.87,3.81-37.57,5.71-56.35ZM121.7,38.7v64.9h61.75c0-8,0-15.86,0-23.7a3.8,3.8,0,0,0-.84-1.87c-8.16-11.87-16.45-23.65-24.43-35.63-1.91-2.86-3.85-3.89-7.27-3.79C141.24,38.87,131.59,38.7,121.7,38.7ZM94,30.09a10.4,10.4,0,0,0-7.89-5.68A4,4,0,0,1,83,22.25c-2.79-5-7.4-6.84-12.91-5.21-2.21.66-3.23.23-4.23-1.78C62.29,8.18,55.57,4.57,48.5,6c-7.27,1.44-12.14,7.12-12.77,14.91-.28,3.39-1.37,4.21-4.77,3.58-4.68-.87-9.57,1.56-11.17,5.63ZM38.35,103.66H86.78c0-2-.09-3.85,0-5.7.09-1.44-.39-2-1.85-2.23-11.87-2.21-23.71-4.53-35.56-6.8-3.64-.7-7.29-1.36-11-2.05Zm109.23,50.55a14,14,0,1,0-14-13.87A13.85,13.85,0,0,0,147.58,154.21Zm-86.94,0a14,14,0,1,0-13.94-14A13.93,13.93,0,0,0,60.64,154.21Zm-46.57-27.5c2.87,0,5.62.09,8.36,0a2.69,2.69,0,0,0,0-5.34c-2.74-.13-5.49,0-8.34,0Z"/><path d="M71.23,38.69c1.62.12,2.41,1.23,2.89,2.77q3.45,11.24,7,22.45c1.66,5.33,3.31,10.67,5,16a3,3,0,0,1-.85,3.66c-1.7,1.34-3.82.48-4.58-1.9-2.21-7-4.38-14-6.56-21-1.87-5.94-3.75-11.88-5.58-17.84C67.84,40.59,69.05,38.7,71.23,38.69Z"/><path d="M53.06,38.69c1.65.14,2.41,1.29,2.89,2.82q3.64,11.77,7.34,23.55c1.24,4,2.5,8,3.73,12,.63,2.08.17,3.42-1.34,4.14-1.7.82-3.35-.06-4.05-2.28C59.07,70.79,56.55,62.69,54,54.6c-1.23-3.92-2.5-7.83-3.69-11.77C49.64,40.57,50.91,38.66,53.06,38.69Z"/><path d="M45.57,78.69c-1.86-.08-2.62-1.3-3.11-2.9C40.17,68.37,37.84,61,35.52,53.56q-1.64-5.23-3.25-10.48c-.67-2.18-.05-3.72,1.66-4.28s3.14.42,3.81,2.57Q42.91,57.9,48,74.44C48.75,76.75,47.61,78.63,45.57,78.69Z"/><path d="M148.37,73.37c-5,0-9.9,0-14.85,0-3,0-3.93-.94-3.94-3.91q0-10.33,0-20.65c0-3,.94-3.93,3.91-3.93,5.34,0,10.68,0,16,0a4.36,4.36,0,0,1,4,2.07q6.38,9.42,12.89,18.75a6.67,6.67,0,0,1,.73,5.72c-.38,1.62-1.82,2-3.35,2C158.66,73.36,153.52,73.37,148.37,73.37ZM135.48,50.63V67.42h25.19c-3.84-5.57-7.5-10.91-11.22-16.22a1.81,1.81,0,0,0-1.3-.55C144,50.61,139.8,50.63,135.48,50.63Z"/><path d="M135.88,88.89c-1.22,0-2.44.07-3.65,0a2.58,2.58,0,0,1-2.59-2.59,2.51,2.51,0,0,1,2.34-3,51.67,51.67,0,0,1,7.67,0,2.56,2.56,0,0,1,2.42,2.94,2.64,2.64,0,0,1-2.74,2.66c-1.15.07-2.3,0-3.45,0Z"/><path d="M147.51,148.73a8.48,8.48,0,1,1,8.48-8.46A8.51,8.51,0,0,1,147.51,148.73Zm2.72-8.37a2.72,2.72,0,0,0-5.43-.29,2.72,2.72,0,1,0,5.43.29Z"/><path d="M69.12,140.34a8.42,8.42,0,0,1-8.51,8.39,8.48,8.48,0,1,1,8.51-8.39ZM60.61,143a2.63,2.63,0,0,0,2.76-2.6,2.67,2.67,0,0,0-2.74-2.83,2.77,2.77,0,0,0-2.7,2.72A2.72,2.72,0,0,0,60.61,143Z"/></g></g></svg>