<svg xmlns="http://www.w3.org/2000/svg" viewBox="0 0 197.81 111.26"><g id="Layer_2" data-name="Layer 2"><g id="Layer_1-2" data-name="Layer 1"><path d="M0,59.87c.27-.84.52-1.69.81-2.53a15.22,15.22,0,0,1,11-10.17c3.1-.83,6.22-1.61,9.35-2.32a10.44,10.44,0,0,0,7.1-5.44c4.6-8.18,9.29-16.32,14-24.46Q50.77,0,68,0h49.43q17.14,0,25.69,14.85c4.58,8,9.18,15.93,13.66,24a10.47,10.47,0,0,0,8.2,5.66c3.57.49,7.11,1.13,10.64,1.85a27.49,27.49,0,0,1,22.08,26.44,87.8,87.8,0,0,1-.35,13.48,14.93,14.93,0,0,1-14.68,12.62c-3.47.08-6.95,0-10.43.08a2.63,2.63,0,0,0-1.88,1.09c-8.83,14.94-29.2,15-37.83,0a2.06,2.06,0,0,0-2.11-1.19q-31.56,0-63.14,0a2.06,2.06,0,0,0-2.09,1.2c-8.66,15-29,14.9-37.83,0a2.64,2.64,0,0,0-1.9-1.08c-3.15-.12-6.3,0-9.46-.06-8,0-13.84-4.69-15.7-12.45A3.81,3.81,0,0,0,0,85.75Zm67.86,32.7h62c-1.44-15.12,9.9-24.36,20.43-24.71a21.19,21.19,0,0,1,15.43,5.43c5.72,5.14,7.86,11.7,7.14,19.41h8.42a18.76,18.76,0,0,0,2.12-.06,9.06,9.06,0,0,0,8-8c.29-3.43.06-6.9.06-10.55-1.34,0-2.55,0-3.75,0a15.5,15.5,0,0,1-14.7-14.67c-.07-2.59,1.07-3.81,3.67-3.84,1.59,0,3.18,0,4.78,0a7.38,7.38,0,0,0-3.23-2A95.28,95.28,0,0,0,166.44,51c-7.31-.82-12.53-4.1-16-10.77-3.92-7.59-8.41-14.89-12.65-22.32-4.46-7.85-11.18-11.79-20.24-11.77-16.48,0-33,.05-49.43,0-9.3,0-16.14,3.93-20.69,12s-9.32,16.3-14,24.47A16.11,16.11,0,0,1,23,50.75c-3.31.8-6.63,1.59-9.89,2.55a23,23,0,0,0-3.75,1.8l.23.52c1.79,0,3.58,0,5.36,0,2.74,0,4.05,1.67,3.42,4.27q-1.39,5.72-2.86,11.41c-.55,2.14-1.48,2.83-3.73,2.85-1.83,0-3.67,0-5.55,0,0,3.46-.07,6.62,0,9.77.12,3.8,2.74,7.59,6.44,8.23,4,.68,8.1.52,12.22.73-1.51-15.39,10-25,21.4-25.08S69.34,77.44,67.86,92.57Zm-37-3a15.45,15.45,0,1,0,15.54-15.4A15.48,15.48,0,0,0,30.9,89.57Zm136,.19a15.45,15.45,0,1,0-15.66,15.3A15.47,15.47,0,0,0,166.86,89.76Zm24.1-22c-.78-1.74-1.51-3.42-2.3-5.07-.18-.36-.61-.82-.93-.83-2.57-.06-5.14,0-7.82,0C181.6,66.4,185.63,68.55,191,67.76ZM6.29,61.9v6H10l1.46-6Z"/><path d="M63.37,46.35c-7.39,0-14.79,0-22.18,0-1.49,0-2.84-.16-3.67-1.59s-.25-2.7.51-4C42.8,32.89,47.52,24.93,52.33,17A15.23,15.23,0,0,1,66.1,9.28q9.74,0,19.48,0c3,0,4,1,4,4.07q0,14.48,0,28.94c0,3-1,4.06-4,4.06Zm20-30.9c-5.79,0-11.44,0-17.09,0a9.52,9.52,0,0,0-8.76,5q-5.49,9.18-11,18.35c-.23.39-.38.84-.6,1.31H83.34Z"/><path d="M102,15.52V40h37.66l-3.56-6a12.48,12.48,0,0,1-1.12-2,2.9,2.9,0,0,1,1.34-3.81,2.66,2.66,0,0,1,3.79.72c2.75,4.34,5.4,8.75,7.91,13.23.94,1.68-.34,3.71-2.27,4.08a10.22,10.22,0,0,1-1.92.08H100.21c-3.53,0-4.42-.9-4.42-4.46V13.51c0-3.28,1-4.23,4.26-4.24H119A16.77,16.77,0,0,1,135.05,20.4a3.05,3.05,0,0,1-5.32,3c-.78-1.1-1.42-2.3-2.14-3.44-1.56-2.5-3.83-4.23-6.73-4.32C114.64,15.37,108.41,15.52,102,15.52Z"/><path d="M43.25,55.6c-1.09,0-2.19.08-3.28,0a3,3,0,0,1-2.87-3.06,3,3,0,0,1,2.88-3c2.19-.1,4.38-.11,6.56,0a3,3,0,0,1,2.88,3,3,3,0,0,1-2.89,3.05C45.45,55.68,44.35,55.6,43.25,55.6Z"/><path d="M102,49.46c1.1,0,2.2-.07,3.28,0a3,3,0,0,1,2.9,3,3,3,0,0,1-2.86,3.06q-3.28.15-6.56,0a3,3,0,0,1-2.9-3,3.08,3.08,0,0,1,2.86-3.08,2.55,2.55,0,0,1,.39,0H102Z"/><path d="M55.61,89.56a9.26,9.26,0,1,1-9.2-9.21A9.29,9.29,0,0,1,55.61,89.56Zm-6.18,0a3.08,3.08,0,1,0-3,3.1A3.12,3.12,0,0,0,49.43,89.59Z"/><path d="M151.48,80.35a9.26,9.26,0,1,1-9.33,9.3A9.27,9.27,0,0,1,151.48,80.35Zm-.08,12.34a3.08,3.08,0,1,0-3.07-3A3.12,3.12,0,0,0,151.4,92.69Z"/></g></g></svg>